PathFileType	4	(X/Y/Z)	/home/abdul/Desktop/myosuite/custom_workspace/IK/output/S19_12_1.trc
DataRate	CameraRate	NumFrames	NumMarkers	Units	OrigDataRate	OrigDataStartFrame	OrigNumFrames
200.0	200.0	55	3	mm	200.0	1059	1694
Frame#	Time	V_Shoulder			V_Elbow			V_Wrist		
		X1	Y1	Z1	X2	Y2	Z2	X3	Y3	Z3

1059	5.29	-100.57747712366815	632.3674352860584	311.28789680205887				-76.08108197165748	184.76355859527365	33.708577296663734
1060	5.295	-100.57926320190097	632.3905044871759	311.3007750441044				-76.17431893613245	184.7460160904837	33.60608548356437
1061	5.3	-100.58129988261919	632.4137053449083	311.31386983465177				-76.26394093365921	184.73459806579564	33.504997002371155
1062	5.305	-100.58358329271339	632.4370142287054	311.32716988535896				-76.34973277043161	184.72981484291296	33.40578421241502
1063	5.31	-100.58610959417354	632.4604097591053	311.34066401350793				-76.43148578771245	184.73218939531068	33.30894247891359
1064	5.315	-100.58887497528565	632.4838728839903	311.3543411782309				-76.50899887818666	184.74225643915946	33.214989176173226
1065	5.32	-100.59187564170996	632.5073869519025	311.36819051653885				-76.58207953958512	184.76056145584954	33.124462577569986
1066	5.325	-100.59510780752062	632.5309377822483	311.3822013790512				-76.65054496350766	184.78765964722294	33.037920633108754
1067	5.33	-100.59856768628869	632.5545137322262	311.3963633653246				-76.71422315707149	184.82411482494894	32.95593963586058
1068	5.335	-100.60225148229277	632.5781057603148	311.41066635867963				-76.77295409470484	184.8704982358139	32.879112779090924
1069	5.34	-100.60615538194368	632.6017074861668	311.425100560421				-76.82659089709863	184.92738732503375	32.808048606413024
1070	5.345	-100.61027554551096	632.625315246755	311.4396565233494				-76.87500103402158	184.9953644400409	32.74336935782904
1071	5.35	-100.61460809924017	632.6489281486243	311.4543251844613				-76.91806754739986	185.07501547754168	32.685709215053876
1072	5.355	-100.61914912795082	632.6725481161113	311.4690978967343				-76.95569029076077	185.16692847698346	32.6357124500498
1073	5.36	-100.62389466820507	632.6961799353971	311.4839664598952				-76.98778718084571	185.2716921639157	32.59403148123176
1074	5.365	-100.62884070213765	632.719831294266	311.49892315006963				-77.01429545690982	185.38989444706806	32.56132484233002
1075	5.37	-100.63398315203638	632.7435128174506	311.513960748213				-77.03517294294888	185.5221208733056	32.538255069415555
1076	5.375	-100.63931787576239	632.7672380974496	311.52907256722386				-77.05039930782844	185.6689530449477	32.525486512101786
1077	5.38	-100.64484066309733	632.7910237207162	311.5442524776422				-77.05997731803859	185.83096700425966	32.52368307543045
1078	5.385	-100.6505472331033	632.8148892891145	311.5594949318385				-77.06393407756212	186.008731590234	32.5335058994258
1079	5.39	-100.65643323257918	632.8388574365609	311.57479498659916				-77.06232224912608	186.20280677307557	32.55561098375847
1080	5.395	-100.66249423569359	632.8629538407649	311.5901483240198				-77.05522125090909	186.41374197208586	32.5906467653933
1081	5.4	-100.66872574487242	632.8872072299982	311.60555127061815				-77.04273842260059	186.64207436290744	32.63925165750265
1082	5.405	-100.67512319301487	632.9116493848295	311.6210008145825				-77.0250101545559	186.8883271803345	32.70205155830433
1083	5.41	-100.68168194710766	632.9363151347676	311.6364946210763				-77.00220297366428	187.15300802311975	32.77965733882945
1084	5.415	-100.6883973133031	632.9612423497698	311.6520310455208				-76.9745145794476	187.43660716740885	32.872662318935966
1085	5.42	-100.69526454352105	632.9864719265775	311.66760914478465				-76.94217482383645	187.73959589560798	32.98163974115797
1086	5.425	-100.7022788436304	633.0120477698514	311.68322868621215				-76.90544662803048	188.06242484763732	33.10714025221455
1087	5.43	-100.70943538325893	633.0380167680916	311.69889015442635				-76.86462682984066	188.405522401641	33.249689402194136
1088	5.435	-100.71672930727532	633.0644287643288	311.71459475585124				-76.82004695493639	188.76929309130793	33.40978517157891
1089	5.44	-100.7241557489794	633.0913365215947	311.73034442089767				-76.77207390547825	189.15411606700985	33.58789553637565
1090	5.445	-100.7317098450305	633.1187956831764	311.7461418037681				-76.72111055971207	189.56034360797884	33.78445608167518
1091	5.45	-100.73938675213655	633.1468647276796	311.7619902798385				-76.66759627622892	189.988299692724	33.99986767396871
1092	5.455	-100.74718166551834	633.1756049189296	311.77789394058254				-76.61200729676263	190.43827863482767	34.23449420250631
1093	5.46	-100.75508983915616	633.2050802507484	311.79385758601				-76.5548570415997	190.91054379115894	34.488660399889135
1094	5.465	-100.76310660781733	633.2353573866608	311.8098867145978				-76.49669629191732	191.4053263494036	34.76264975194199
1095	5.47	-100.77122741085486	633.2665055945839	311.8259875106985				-76.43811325364284	191.9228242016222	35.056702506717436
1096	5.475	-100.77944781775905	633.2985966765733	311.8421668294195				-76.37973349774393	192.46320091032527	35.37101379223496
1097	5.48	-100.78776355543447	633.3317048936989	311.85843217897167				-76.3222197722087	193.02658477328316	35.705731852261735
1098	5.485	-100.79617053716645	633.3659068861407	311.87479170049613				-76.26627168136449	193.61306799297694	36.060956409093016
1099	5.49	-100.80466489323139	633.4012815885977	311.89125414538245				-76.21262522860485	194.2227059562432	36.43673716189434
1100	5.495	-100.81324300309664	633.437910141117	311.9078288501035				-76.16205221905184	194.85551662926795	36.83307242872315
1101	5.5	-100.82190152914613	633.4758757954536	311.9245257085951				-76.11535951916886	195.51148007264968	37.249907939857444
1102	5.505	-100.83063745185864	633.5152638170861	311.9413551422213				-76.07338817085962	196.1905380807736	37.687135789525655
1103	5.51	-100.83944810635724	633.5561613830141	311.9583280673712				-76.0370123581369	196.89259394922726	38.144593552556046
1104	5.515	-100.84833122023808	633.5986574754781	311.97545586074307				-76.00713822502058	197.61751237343591	38.62206357185015
1105	5.52	-100.8572849525789	633.6428427717459	311.99275032237813				-75.9847025439243	198.36511948111587	39.119272421934134
1106	5.525	-100.86630793401822	633.6888095301186	312.0102236365159				-75.9706712344119	199.1352030005289	39.635890553158774
1107	5.53	-100.87539930778804	633.7366514723167	312.027888330351				-75.9660377328462	199.92751256588247	40.171532120406084
1108	5.535	-100.88455877157374	633.7864636624109	312.0457572307782				-75.97182121410971	200.74176016055603	40.72575499942163
1109	5.54	-100.89378662006807	633.8383423824727	312.06384341922194				-75.98906466724705	201.57762069814933	41.29806099313109
1110	5.545	-100.90308378807703	633.8923850051211	312.08216018465356				-76.01883282755944	202.43473274065042	41.88789622952017
1111	5.55	-100.91245189402927	633.9486898631527	312.1007209749071				-76.06220996836795	203.31269935230807	42.49465175186431
1112	5.555	-100.92189328373276	634.0073561164412	312.1195393464143				-76.12029755635176	204.2110890870754	43.11766430129116
1113	5.56	-100.93141107421648	634.0684836163051	312.13862891248255				-76.19421177505569	205.12943710677104	43.75621729085059
